<svg width="50" height="50" viewBox="0 0 50 50" fill="none" xmlns="http://www.w3.org/2000/svg">
<path fill-rule="evenodd" clip-rule="evenodd" d="M25 0C11.1916 0 0 11.4749 0 25.6328C0 36.9561 7.16112 46.5652 17.097 49.9575C18.3477 50.1888 18.7989 49.3998 18.7989 48.7214C18.7989 48.1123 18.7788 46.4984 18.7713 44.3627C11.8157 45.9098 10.3469 40.9241 10.3469 40.9241C9.21396 37.9635 7.57219 37.1745 7.57219 37.1745C5.30379 35.5837 7.74514 35.6197 7.74514 35.6197C10.2567 35.7996 11.5726 38.2616 11.5726 38.2616C13.8034 42.1782 17.4278 41.0475 18.8465 40.3921C19.0746 38.7345 19.7263 37.6037 20.4381 36.9638C14.8887 36.3187 9.05354 34.1188 9.05354 24.2939C9.05354 21.5003 10.0286 19.2079 11.6202 17.4192C11.3671 16.769 10.5023 14.1605 11.8684 10.6345C11.8684 10.6345 13.9663 9.94319 18.7412 13.2584C20.7805 12.6896 22.8841 12.3993 24.9975 12.3949C27.1109 12.3985 29.2146 12.6888 31.2538 13.2584C36.0312 9.94062 38.1266 10.6345 38.1266 10.6345C39.4927 14.1605 38.6355 16.769 38.3748 17.4192C39.9789 19.2079 40.9414 21.4977 40.9414 24.2939C40.9414 34.1445 35.1013 36.3084 29.5318 36.9432C30.4216 37.7348 31.2237 39.2973 31.2237 41.6874C31.2237 45.1157 31.1936 47.881 31.1936 48.7214C31.1936 49.4076 31.6398 50.2042 32.9156 49.9524C42.8464 46.5549 50 36.9535 50 25.6328C50 11.4749 38.8084 0 25 0Z" fill="#F8F2F9"/>
</svg>
