<svg width="50" height="50" viewBox="0 0 50 50" fill="none" xmlns="http://www.w3.org/2000/svg">
<path d="M25.0075 7.70499e-05C18.378 0.00671969 12.0219 2.64208 7.33364 7.32796C2.64542 12.0138 0.0079902 18.3675 1.42131e-05 24.995C-0.00500736 29.7139 1.32069 34.3123 3.82143 38.2932L4.41398 39.237L1.88813 48.4588L11.3538 45.9789L12.2627 46.5211C16.1168 48.8015 20.5138 50.0032 24.9924 50H24.9974C31.6248 49.9907 37.9781 47.355 42.6648 42.6707C47.3515 37.9863 49.9892 31.6354 49.9998 25.0101C50.0113 21.7261 49.371 18.4724 48.116 15.4375C46.861 12.4025 45.0162 9.64665 42.6884 7.32938C40.3727 4.9993 37.6176 3.1517 34.5826 1.8936C31.5476 0.635494 28.293 -0.00810534 25.0075 7.70499e-05ZM39.7106 35.7329C39.0829 37.49 36.08 39.0864 34.6388 39.3022C33.0589 39.5746 31.4371 39.4731 29.9035 39.006C28.4485 38.5556 27.0187 38.0278 25.6201 37.4247C18.0777 34.1717 13.1565 26.5864 12.7749 26.0793C12.4033 25.5773 9.71174 22.003 9.71174 18.3083C9.71174 14.6085 11.6501 12.7912 12.338 12.0382C12.5906 11.7529 12.8994 11.5227 13.245 11.362C13.5906 11.2014 13.9656 11.1137 14.3467 11.1045C14.8488 11.1045 15.3459 11.1095 15.7878 11.1296C16.2498 11.1497 16.8675 10.9539 17.4751 12.4197C18.1028 13.9258 19.6093 17.6205 19.7951 17.997C19.9809 18.3685 20.1064 18.8103 19.8603 19.3123C19.6093 19.8193 19.4888 20.1255 19.1071 20.5673C18.7355 21.0091 18.3187 21.5462 17.9823 21.8876C17.6057 22.2591 17.214 22.6657 17.6509 23.4187C18.0928 24.1667 19.5992 26.6316 21.8288 28.6245C24.7011 31.1848 27.1266 31.9729 27.8748 32.3544C28.628 32.7259 29.0649 32.6707 29.5068 32.1637C29.9437 31.6566 31.3849 29.9699 31.887 29.2219C32.3892 28.4689 32.8863 28.5944 33.5793 28.8404C34.2672 29.0964 37.9631 30.9087 38.7113 31.2852C39.4545 31.6566 39.9617 31.8474 40.1525 32.1637C40.3333 32.4749 40.3333 33.9759 39.7106 35.7329Z" fill="#F8F2F9"/>
</svg>
